# xmcd CD database file generated by Grip 2.91
# 
# Track frame offsets:
#       150
#       19332
#       40497
#       51157
#       67907
#       91537
#       114842
#       134290
#       156897
#       172057
#       187510
#       205520
#       214360
#       253325
#       270640
#       285775
# 
# Disc length: 3970 seconds
# 
# Revision: 3
# Processed by: cddbd v1.4b41PL1 Copyright (c) Steve Scherf et al.
# Submitted via: Grip 2.91
# 
DISCID=d80f8010
DTITLE=Paul Lamb and The King Snakes - John Henry Jumps In
DYEAR=1900
DGENRE=
TTITLE0=The Pillow
TTITLE1=If The Tables Were Turned
TTITLE2=Sweet, Sweet Woman
TTITLE3=I'm Packin' Up
TTITLE4=My Prayer
TTITLE5=That's No Good To Me
TTITLE6=Sometimes I Wonder
TTITLE7=All Because Of You
TTITLE8=Roll With It
TTITLE9=Should Be Mine
TTITLE10=Waiting on You
TTITLE11=John Henry Jumps In
TTITLE12=Don't Answer The Door
TTITLE13=Come Back Baby
TTITLE14=My Baby Left Me
TTITLE15=Jump For It
EXTD=Indigo Delux Records - IGOXCD 512
EXTT0=
EXTT1=
EXTT2=
EXTT3=
EXTT4=
EXTT5=
EXTT6=
EXTT7=
EXTT8=
EXTT9=
EXTT10=
EXTT11=
EXTT12=
EXTT13=
EXTT14=
EXTT15=
PLAYORDER=
